<svg width="18" height="22" viewBox="0 0 18 22" fill="none" xmlns="http://www.w3.org/2000/svg">
<g clip-path="url(#clip0_658_7)">
<path d="M9.51319 21.7885L16.7858 14.5159C17.0909 14.2547 17.1264 13.7956 16.8651 13.4905C16.6039 13.1855 16.1448 13.1499 15.8397 13.4112C15.8113 13.4356 15.7847 13.4621 15.7604 13.4905L9.72413 19.5195V0.727238C9.72413 0.32562 9.39851 0 8.99683 0C8.59515 0 8.26959 0.32562 8.26959 0.727238L8.26959 19.5195L2.24063 13.4905C1.97939 13.1855 1.52027 13.1499 1.21521 13.4112C0.910157 13.6725 0.874595 14.1316 1.1359 14.4366C1.16028 14.4651 1.18678 14.4916 1.21521 14.5159L8.48784 21.7886C8.77139 22.0705 9.22951 22.0705 9.51319 21.7885Z" fill="#1C232C"/>
</g>
<defs>
<clipPath id="clip0_658_7">
<rect width="22" height="18" fill="white" transform="translate(18) rotate(90)"/>
</clipPath>
</defs>
</svg>
