<svg width="22" height="17" viewBox="0 0 22 17" fill="none" xmlns="http://www.w3.org/2000/svg">
<path d="M21.7885 7.67911L14.5159 0.271632C14.2547 -0.0390814 13.7956 -0.0753025 13.4905 0.190851C13.1855 0.456941 13.1499 0.924571 13.4112 1.23528C13.4356 1.26425 13.4621 1.2913 13.4905 1.31607L19.5195 7.46427H0.727238C0.32562 7.46427 0 7.79592 0 8.20505C0 8.61418 0.32562 8.94578 0.727238 8.94578H19.5195L13.4905 15.0865C13.1855 15.3526 13.1499 15.8202 13.4112 16.131C13.6725 16.4417 14.1316 16.4779 14.4366 16.2117C14.4651 16.1869 14.4916 16.1599 14.5159 16.131L21.7886 8.72348C22.0705 8.43467 22.0705 7.96805 21.7885 7.67911Z" fill="#1C232C"/>
</svg>
