<svg width="236" height="44" viewBox="0 0 236 44" fill="none" xmlns="http://www.w3.org/2000/svg">
<g clip-path="url(#clip0_182_227)">
<path d="M25.16 24.59L10.02 32.03V18.87C10.02 17.68 10.73 16.61 11.82 16.14L30.34 8.2L32.56 9.6C32.81 9.76 33.14 9.57 33.13 9.27L32.79 0.71C32.77 0.31 32.45 0 32.05 0H18.6C18.23 0 18.09 0.49 18.4 0.69L19.96 1.68L1.8 9.46C0.71 9.93 0 11 0 12.19V35.77C0 36.51 0.37 37.21 0.99 37.62L8.96 42.93C9.62 43.37 10.47 43.43 11.18 43.08L34.41 31.66C35.44 31.15 35.53 29.73 34.58 29.09L28.12 24.79C27.24 24.2 26.11 24.12 25.16 24.59Z" fill="#00E8AF"/>
<path d="M11.8398 42.72L34.4098 31.62C35.4398 31.11 35.5298 29.69 34.5798 29.05L28.1198 24.75C27.2398 24.16 26.1098 24.09 25.1598 24.56L10.0298 32V40.45C10.0298 40.45 9.94978 43.06 11.8398 42.72Z" fill="#009167"/>
<path d="M48.0601 20.7C48.0601 13.48 53.5201 8.62 60.7101 8.62C66.3501 8.62 69.3601 11.81 70.9001 14.89L65.7201 17.34C64.9501 15.48 62.9501 13.94 60.7101 13.94C56.8901 13.94 54.1901 16.88 54.1901 20.7C54.1901 24.52 56.8901 27.46 60.7101 27.46C62.9501 27.46 64.9501 25.92 65.7201 24.06L70.9001 26.51C69.3901 29.52 66.3501 32.78 60.7101 32.78C53.5201 32.78 48.0601 27.88 48.0601 20.7Z" fill="#F7F7F7"/>
<path d="M73.3501 32.36V9H78.7401V32.36H73.3501Z" fill="#F7F7F7"/>
<path d="M81.54 23.88C81.54 18.98 85.25 15.02 90.54 15.02C95.55 15.02 99.19 18.7 99.19 24.44V25.6H87.15C87.47 27.18 88.94 28.61 91.39 28.61C92.58 28.61 94.65 28.08 95.59 27.17L97.87 30.53C96.19 32.04 93.39 32.77 90.79 32.77C85.57 32.78 81.54 29.38 81.54 23.88ZM90.55 19.19C88.2 19.19 87.29 20.87 87.08 22.1H94.05C93.91 20.91 93.03 19.19 90.55 19.19Z" fill="#F7F7F7"/>
<path d="M111.84 32.36V30.68C110.79 31.94 108.76 32.78 106.59 32.78C104 32.78 100.78 31.03 100.78 27.21C100.78 23.11 104 21.78 106.59 21.78C108.83 21.78 110.83 22.48 111.84 23.74V21.71C111.84 20.24 110.58 19.26 108.41 19.26C106.73 19.26 104.98 19.89 103.61 21.05L101.68 17.65C103.85 15.79 106.76 15.02 109.35 15.02C113.41 15.02 117.23 16.53 117.23 21.78V32.36H111.84ZM111.84 28.02V26.51C111.28 25.74 110.02 25.32 108.83 25.32C107.39 25.32 106.13 25.95 106.13 27.28C106.13 28.61 107.39 29.24 108.83 29.24C110.02 29.24 111.28 28.82 111.84 28.02Z" fill="#F7F7F7"/>
<path d="M121.16 32.36V15.44H126.55V17.51C127.67 16.14 129.81 14.99 131.84 14.99V20.17C131.52 20.1 131.07 20.03 130.51 20.03C129.11 20.03 127.25 20.63 126.55 21.57V32.36H121.16Z" fill="#F7F7F7"/>
<path d="M148.44 32.36L144.52 24.51H141.44V32.36H135.42V9H147.12C152.3 9 155.25 12.43 155.25 16.78C155.25 20.84 152.76 23.01 150.59 23.79L155.35 32.37H148.44V32.36ZM149.1 16.74C149.1 15.16 147.77 14.25 146.19 14.25H141.43V19.26H146.19C147.77 19.26 149.1 18.39 149.1 16.74Z" fill="#00E8AF"/>
<path d="M156.25 23.88C156.25 19.12 159.72 15.02 165.46 15.02C171.27 15.02 174.71 19.12 174.71 23.88C174.71 28.64 171.28 32.78 165.46 32.78C159.72 32.78 156.25 28.65 156.25 23.88ZM169.17 23.88C169.17 21.64 167.84 19.78 165.46 19.78C163.11 19.78 161.82 21.64 161.82 23.88C161.82 26.16 163.12 28.01 165.46 28.01C167.84 28.02 169.17 26.16 169.17 23.88Z" fill="#00E8AF"/>
<path d="M188.96 32.36V30.33C187.91 31.52 185.95 32.78 183.11 32.78C179.26 32.78 177.54 30.61 177.54 27.49V15.44H182.93V25.28C182.93 27.31 183.98 28.01 185.73 28.01C187.27 28.01 188.32 27.17 188.95 26.36V15.44H194.34V32.36H188.96Z" fill="#00E8AF"/>
<path d="M199.4 27.81V20.14H196.6V15.45H199.4V10.83H204.76V15.45H208.19V20.14H204.76V26.3C204.76 27.28 205.32 28.02 206.27 28.02C206.87 28.02 207.46 27.81 207.64 27.6L208.69 31.66C208.02 32.29 206.69 32.78 204.7 32.78C201.26 32.78 199.4 31.07 199.4 27.81Z" fill="#00E8AF"/>
<path d="M209.77 23.88C209.77 18.98 213.48 15.02 218.77 15.02C223.78 15.02 227.42 18.7 227.42 24.44V25.6H215.37C215.69 27.18 217.16 28.61 219.61 28.61C220.8 28.61 222.87 28.08 223.81 27.17L226.09 30.53C224.41 32.04 221.61 32.77 219.01 32.77C213.8 32.78 209.77 29.38 209.77 23.88ZM218.77 19.19C216.42 19.19 215.51 20.87 215.3 22.1H222.27C222.14 20.91 221.26 19.19 218.77 19.19Z" fill="#00E8AF"/>
</g>
<defs>
<clipPath id="clip0_182_227">
<rect width="235.43" height="43.31" fill="white"/>
</clipPath>
</defs>
</svg>
